<?xml version="1.0" encoding="UTF-8" standalone="no"?>
<!DOCTYPE svg PUBLIC "-//W3C//DTD SVG 1.1//EN" "http://www.w3.org/Graphics/SVG/1.1/DTD/svg11.dtd">
<svg width="100%" height="100%" viewBox="0 0 256 256" version="1.1" xmlns="http://www.w3.org/2000/svg" xmlns:xlink="http://www.w3.org/1999/xlink" xml:space="preserve" xmlns:serif="http://www.serif.com/" style="fill-rule:evenodd;clip-rule:evenodd;stroke-linecap:round;stroke-linejoin:round;stroke-miterlimit:1.5;">
    <g transform="matrix(1,0,0,1,0,-134.314)">
        <g id="favicon" transform="matrix(0.2,0,0,0.32,0,134.314)">
            <rect x="0" y="0" width="1280" height="800" style="fill:none;"/>
            <g transform="matrix(1.09868,0,0,1.10761,-32.0919,-3.59777)">
                <g transform="matrix(30.8506,0,0,19.2816,-2766.95,-3039.17)">
                    <path d="M105.325,168.478C110.942,179.712 130.887,164.495 122.361,163.698C115.501,163.057 103.761,190.483 98.952,189.313C87.851,186.613 101.343,182.966 101.893,182.817C105.963,181.718 107.808,181.696 107.164,185.882C106.849,187.925 120.933,185.175 121.47,184.772" style="fill:none;stroke:black;stroke-width:7.49px;"/>
                </g>
                <g transform="matrix(30.8506,0,0,19.2816,-2766.95,-3039.17)">
                    <path d="M105.325,168.478C110.942,179.712 130.887,164.495 122.361,163.698C115.501,163.057 103.761,190.483 98.952,189.313C87.851,186.613 101.343,182.966 101.893,182.817C105.963,181.718 107.808,181.696 107.164,185.882C106.849,187.925 120.933,185.175 121.47,184.772" style="fill:none;stroke:white;stroke-width:2.76px;"/>
                </g>
            </g>
        </g>
    </g>
</svg>
